<svg width="18" height="32" viewBox="0 0 18 32" fill="none" xmlns="http://www.w3.org/2000/svg">
<path d="M0.379769 16.8781L15.7954 31.6381C16.3005 32.1214 17.1182 32.1206 17.6225 31.6356C18.1263 31.1507 18.125 30.3651 17.6199 29.8815L3.12179 15.9999L17.6204 2.11849C18.1255 1.63475 18.1268 0.849686 17.623 0.364688C17.3702 0.121563 17.0391 8.44438e-08 16.7079 1.13393e-07C16.3776 1.42268e-07 16.0478 0.120751 15.7955 0.362187L0.379769 15.1218C0.136507 15.3542 4.48924e-07 15.6704 4.7773e-07 15.9999C5.06536e-07 16.3294 0.136897 16.6453 0.379769 16.8781Z" fill="current"/>
</svg>
