<svg width="100%" height="100%" viewBox="0 0 32 32" fill="none" xmlns="http://www.w3.org/2000/svg">
<path d="M3 7L6.09387 8.23953C8.17887 9.07487 10.38 9.58432 12.62 9.75V9.75L13.4807 9.81366C15.1581 9.93773 16.8422 9.94216 18.5202 9.82691V9.82691C21.6791 9.60995 24.7947 8.97038 27.7836 7.92531L29 7.5" stroke="current" stroke-width="2"/>
<path d="M16 1L12.6491 5.13601C11.0238 7.14204 9.96525 9.54662 9.58333 12.1V12.1L9.46682 12.879C9.15721 14.949 9.1462 17.0526 9.43413 19.1257V19.1257C9.91546 22.5913 11.2209 25.891 13.2409 28.7478L14.8333 31" stroke="current" stroke-width="2"/>
<path d="M16 31L19.3509 26.864C20.9762 24.858 22.0348 22.4534 22.4167 19.9V19.9L22.5332 19.121C22.8428 17.051 22.8538 14.9474 22.5659 12.8743V12.8743C22.0845 9.40867 20.7791 6.10902 18.7591 3.25215L17.1667 0.999999" stroke="current" stroke-width="2"/>
<path d="M29 25L25.9061 23.7605C23.8211 22.9251 21.62 22.4157 19.38 22.25V22.25L18.5193 22.1863C16.8419 22.0623 15.1578 22.0578 13.4798 22.1731V22.1731C10.3209 22.3901 7.2053 23.0296 4.21639 24.0747L3 24.5" stroke="current" stroke-width="2"/>
<circle cx="16" cy="16" r="15" stroke="current" stroke-width="2"/>
<line y1="16" x2="32" y2="16" stroke="current" stroke-width="2"/>
</svg>
