<svg width="34" height="32" viewBox="0 0 34 32" fill="none" xmlns="http://www.w3.org/2000/svg">
<path d="M24.9688 0C23.1238 0 21.4323 0.623292 19.9413 1.8526C18.5119 3.03115 17.5603 4.53225 17 5.62379C16.4397 4.53218 15.4881 3.03115 14.0587 1.8526C12.5677 0.623292 10.8762 0 9.03125 0C3.88264 0 0 4.4897 0 10.4435C0 16.8756 4.84387 21.2764 12.1768 27.9385C13.4221 29.0699 14.8336 30.3524 16.3006 31.7201C16.494 31.9006 16.7423 32 17 32C17.2577 32 17.506 31.9006 17.6994 31.7201C19.1666 30.3522 20.578 29.0699 21.8239 27.9378C29.1561 21.2764 34 16.8756 34 10.4435C34 4.4897 30.1174 0 24.9688 0Z" fill="black"/>
</svg>
