<svg width="34" height="32" viewBox="0 0 34 32" fill="none" xmlns="http://www.w3.org/2000/svg">
<path d="M17 32C16.516 32 16.0493 31.8145 15.6856 31.4775C14.3121 30.207 12.9879 29.013 11.8195 27.9598L11.8136 27.9543C8.3882 24.8663 5.43027 22.1996 3.37219 19.5726C1.07158 16.6358 0 13.8513 0 10.8095C0 7.85401 0.957962 5.12743 2.69724 3.13162C4.45726 1.1122 6.87227 0 9.49817 0C11.4608 0 13.2582 0.656399 14.8402 1.95081C15.6387 2.60419 16.3624 3.40383 17 4.33657C17.6379 3.40383 18.3613 2.60419 19.16 1.95081C20.7421 0.656399 22.5395 0 24.5021 0C27.1277 0 29.543 1.1122 31.303 3.13162C33.0423 5.12743 34 7.85401 34 10.8095C34 13.8513 32.9287 16.6358 30.6281 19.5723C28.57 22.1996 25.6123 24.8661 22.1875 27.9538C21.0171 29.0086 19.6908 30.2045 18.3141 31.4781C17.9507 31.8145 17.4838 32 17 32V32ZM9.49817 2.10695C7.43517 2.10695 5.53999 2.97794 4.16129 4.55967C2.76208 6.16527 1.99141 8.38473 1.99141 10.8095C1.99141 13.3678 2.89023 15.6559 4.9055 18.2282C6.85333 20.7147 9.75056 23.3266 13.1051 26.3509L13.1113 26.3564C14.2841 27.4137 15.6135 28.6124 16.9971 29.8922C18.3891 28.6099 19.7206 27.4093 20.8957 26.3504C24.25 23.326 27.1469 20.7147 29.0948 18.2282C31.1098 15.6559 32.0086 13.3678 32.0086 10.8095C32.0086 8.38473 31.2379 6.16527 29.8387 4.55967C28.4603 2.97794 26.5648 2.10695 24.5021 2.10695C22.9908 2.10695 21.6033 2.61517 20.3782 3.61733C19.2863 4.51082 18.5258 5.64031 18.0799 6.43062C17.8506 6.83703 17.4469 7.07961 17 7.07961C16.5531 7.07961 16.1494 6.83703 15.9201 6.43062C15.4745 5.64031 14.7139 4.51082 13.6218 3.61733C12.3967 2.61517 11.0092 2.10695 9.49817 2.10695V2.10695Z" stroke="none" fill="current"/>
</svg>
