<svg width="28" height="32" viewBox="0 0 28 32" fill="none" xmlns="http://www.w3.org/2000/svg">
<path d="M27.9948 30.9482L25.5359 7.78735C25.4844 7.30249 25.0712 6.93433 24.5783 6.93433H19.9569V5.89209C19.9569 2.64331 17.2845 0 14.0001 0C10.7154 0 8.04314 2.64331 8.04314 5.89209V6.93433H3.4217C2.9288 6.93433 2.51562 7.30249 2.46404 7.78735L0.00522762 30.9482C-0.0231566 31.2166 0.0649579 31.4844 0.247357 31.6851C0.430003 31.8855 0.690151 32 0.962886 32H27.0369C27.3098 32 27.57 31.8855 27.7524 31.6851C27.9353 31.4844 28.0231 31.2166 27.9948 30.9482ZM9.96882 5.89209C9.96882 3.6936 11.7773 1.90479 14.0001 1.90479C16.2227 1.90479 18.0312 3.6936 18.0312 5.89209V6.93433H9.96882V5.89209ZM2.03211 30.0952L4.28877 8.83911H8.04314V10.938C8.04314 11.4639 8.47433 11.8904 9.00598 11.8904C9.53763 11.8904 9.96882 11.4639 9.96882 10.938V8.83911H18.0312V10.938C18.0312 11.4639 18.4624 11.8904 18.994 11.8904C19.5257 11.8904 19.9569 11.4639 19.9569 10.938V8.83911H23.7112L25.9679 30.0952H2.03211Z" stroke="none" fill="current"/>
</svg>
