<svg width="32" height="32" viewBox="0 0 32 32" fill="none" xmlns="http://www.w3.org/2000/svg">
<path d="M15.4791 5.05717L9.25679 0.3905C8.56345 -0.130167 7.43633 -0.130167 6.74298 0.3905L0.520674 5.05717C-0.173558 5.57783 -0.173558 6.42183 0.520674 6.9425C1.21402 7.46317 2.34114 7.46317 3.03449 6.9425L6.22209 4.55183V30.6665C6.22209 31.4025 7.01854 31.9998 7.99989 31.9998C8.98124 31.9998 9.77769 31.4025 9.77769 30.6665V4.55183L12.9653 6.9425C13.312 7.20317 13.7671 7.33317 14.2222 7.33317C14.6773 7.33317 15.1324 7.20317 15.4791 6.9425C16.1733 6.42183 16.1733 5.57783 15.4791 5.05717V5.05717Z" fill="current"/>
<path d="M31.4794 25.0573C30.7851 24.5367 29.6598 24.5367 28.9655 25.0573L25.7779 27.448V1.33333C25.7779 0.597333 24.9815 0 24.0001 0C23.0188 0 22.2223 0.597333 22.2223 1.33333V27.448L19.0347 25.0573C18.3405 24.5367 17.2143 24.5367 16.5209 25.0573C15.8267 25.578 15.8267 26.422 16.5209 26.9427L22.7432 31.6093C23.0908 31.87 23.545 32 24.0001 32C24.4553 32 24.9095 31.87 25.257 31.6093L31.4794 26.9427C32.1736 26.422 32.1736 25.578 31.4794 25.0573Z" fill="current"/>
</svg>
