<svg width="100%" height="100%" viewBox="0 0 28 32" fill="none" xmlns="http://www.w3.org/2000/svg">
<path d="M26.2591 8.50156H1.74013C1.4752 8.50156 1.22112 8.39632 1.03379 8.20899C0.846454 8.02165 0.741211 7.76758 0.741211 7.50265V5.11562C0.742349 4.85104 0.847957 4.59762 1.03504 4.41053C1.22213 4.22345 1.47555 4.11784 1.74013 4.1167H26.2591C26.5236 4.11784 26.777 4.22345 26.9641 4.41053C27.1512 4.59762 27.2568 4.85104 27.258 5.11562V7.50265C27.258 7.76758 27.1527 8.02165 26.9654 8.20899C26.7781 8.39632 26.524 8.50156 26.2591 8.50156ZM1.74013 4.98156C1.70458 4.98156 1.67048 4.99569 1.64534 5.02083C1.6202 5.04597 1.60608 5.08006 1.60608 5.11562V7.50265C1.60608 7.5382 1.6202 7.5723 1.64534 7.59744C1.67048 7.62258 1.70458 7.6367 1.74013 7.6367H26.2591C26.2946 7.6367 26.3287 7.62258 26.3538 7.59744C26.379 7.5723 26.3931 7.5382 26.3931 7.50265V5.11562C26.3931 5.08006 26.379 5.04597 26.3538 5.02083C26.3287 4.99569 26.2946 4.98156 26.2591 4.98156H1.74013Z" fill="current"/>
<path d="M18.0864 4.98163H9.91339C9.7987 4.98163 9.68871 4.93607 9.60761 4.85497C9.52652 4.77387 9.48096 4.66388 9.48096 4.54919V2.30487C9.48096 1.92296 9.63267 1.55669 9.90272 1.28663C10.1728 1.01658 10.539 0.864868 10.921 0.864868H17.0788C17.4607 0.864868 17.827 1.01658 18.097 1.28663C18.3671 1.55669 18.5188 1.92296 18.5188 2.30487V4.54919C18.5188 4.66388 18.4733 4.77387 18.3922 4.85497C18.3111 4.93607 18.2011 4.98163 18.0864 4.98163ZM10.3458 4.11676H17.6539V2.30487C17.6545 2.22918 17.64 2.15413 17.6113 2.08409C17.5826 2.01406 17.5403 1.95042 17.4868 1.8969C17.4333 1.84338 17.3696 1.80104 17.2996 1.77234C17.2295 1.74364 17.1545 1.72916 17.0788 1.72973H10.921C10.8453 1.72916 10.7702 1.74364 10.7002 1.77234C10.6301 1.80104 10.5665 1.84338 10.513 1.8969C10.4595 1.95042 10.4171 2.01406 10.3884 2.08409C10.3597 2.15413 10.3452 2.22918 10.3458 2.30487V4.11676Z" fill="current"/>
<path d="M21.758 31.1351H5.758C5.42841 31.1358 5.1109 31.0111 4.86995 30.7862C4.629 30.5613 4.48268 30.2531 4.4607 29.9243L3.00773 8.09942C3.00392 8.04025 3.01231 7.98092 3.0324 7.92513C3.05248 7.86933 3.08383 7.81827 3.12449 7.7751C3.16481 7.73163 3.21364 7.69691 3.26794 7.6731C3.32225 7.6493 3.38087 7.63691 3.44016 7.63672H24.5602C24.6204 7.63648 24.68 7.64881 24.7352 7.67294C24.7903 7.69706 24.8399 7.73244 24.8806 7.77681C24.9213 7.82119 24.9523 7.87357 24.9716 7.93061C24.9909 7.98766 24.998 8.0481 24.9926 8.10807L23.051 29.9546C23.0218 30.2773 22.873 30.5774 22.6337 30.7958C22.3944 31.0143 22.082 31.1353 21.758 31.1351V31.1351ZM3.90287 8.50159L5.32557 29.8681C5.33324 29.9774 5.38217 30.0798 5.46245 30.1545C5.54273 30.2291 5.64837 30.2705 5.758 30.2702H21.758C21.8663 30.2707 21.9707 30.2305 22.0508 30.1576C22.1309 30.0848 22.1807 29.9845 22.1904 29.8767L24.0888 8.50159H3.90287Z" fill="current"/>
<path d="M18.3248 25.0811H18.2902C18.2333 25.0767 18.1779 25.0612 18.1271 25.0353C18.0763 25.0094 18.0311 24.9738 17.9941 24.9303C17.9571 24.8869 17.9291 24.8366 17.9116 24.7824C17.8942 24.7281 17.8876 24.6709 17.8924 24.6141L18.7572 14.0887C18.7664 13.974 18.8208 13.8676 18.9083 13.793C18.9517 13.7561 19.0019 13.728 19.0561 13.7105C19.1103 13.693 19.1675 13.6863 19.2242 13.6908C19.281 13.6954 19.3364 13.7111 19.3871 13.737C19.4378 13.7629 19.4829 13.7986 19.5199 13.842C19.5568 13.8853 19.5849 13.9355 19.6024 13.9897C19.6199 14.0439 19.6266 14.1011 19.6221 14.1579L18.7572 24.6833C18.7485 24.7918 18.6991 24.8931 18.619 24.9669C18.5388 25.0407 18.4337 25.0814 18.3248 25.0811Z" fill="current"/>
<path d="M14.0001 25.0811C13.8854 25.0811 13.7754 25.0355 13.6943 24.9544C13.6132 24.8733 13.5676 24.7633 13.5676 24.6486V14.1232C13.5676 14.0085 13.6132 13.8985 13.6943 13.8175C13.7754 13.7364 13.8854 13.6908 14.0001 13.6908C14.1148 13.6908 14.2247 13.7364 14.3058 13.8175C14.3869 13.8985 14.4325 14.0085 14.4325 14.1232V24.6486C14.4325 24.7633 14.3869 24.8733 14.3058 24.9544C14.2247 25.0355 14.1148 25.0811 14.0001 25.0811Z" fill="current"/>
<path d="M9.67589 25.0811C9.56695 25.0814 9.4619 25.0406 9.38173 24.9669C9.30155 24.8931 9.25217 24.7918 9.24346 24.6832L8.3786 14.1578C8.37025 14.0438 8.40742 13.931 8.48198 13.8443C8.55654 13.7576 8.66241 13.704 8.77643 13.6951C8.89051 13.6855 9.00374 13.7216 9.09129 13.7953C9.17883 13.8691 9.23356 13.9746 9.24346 14.0886L10.1083 24.614C10.1131 24.6709 10.1065 24.7281 10.089 24.7823C10.0716 24.8366 10.0435 24.8869 10.0066 24.9303C9.96959 24.9737 9.9244 25.0094 9.87358 25.0353C9.82277 25.0611 9.76734 25.0767 9.71049 25.0811H9.67589Z" fill="current"/>
</svg>
